<svg width="40" height="40" viewBox="0 0 40 40" fill="none" xmlns="http://www.w3.org/2000/svg">
<g clip-path="url(#clip0)">
<path d="M7.32889 13.2282H12.0858V10.4265C12.0862 10.0968 12.1802 9.77393 12.3567 9.49545C11.8749 8.82423 11.6145 8.01939 11.6118 7.19316C11.6423 4.94018 13.4934 3.13845 15.7464 3.16892C16.2839 3.17623 16.8147 3.28965 17.3083 3.50274C18.7087 1.69254 21.2054 1.14681 23.2333 2.2077C24.6276 -0.00243215 27.5494 -0.663916 29.7596 0.730364C30.9303 1.46887 31.7189 2.68307 31.9176 4.05302C34.0295 3.26743 36.3783 4.3426 37.1638 6.45444C37.3264 6.89152 37.4129 7.35335 37.4194 7.81963V16.0892C37.4071 17.5468 36.3248 18.7734 34.8801 18.9671V35.8957C35.0713 37.9624 33.5508 39.7927 31.4841 39.9839C31.2538 40.0052 31.0221 40.0052 30.7919 39.9839H16.1741C14.1073 40.175 12.277 38.6546 12.0858 36.5878C12.0646 36.3576 12.0646 36.1259 12.0858 35.8957V35.4386H7.32889C4.35793 35.4386 2.58043 33.221 2.58043 29.5136V19.1533C2.60582 15.4289 4.38332 13.2282 7.32889 13.2282ZM15.5525 38.2994C15.7586 38.3301 15.9681 38.3301 16.1742 38.2994H30.7919C31.9431 38.471 33.0156 37.677 33.1873 36.5257C33.218 36.3196 33.218 36.1101 33.1873 35.904V18.7046C32.1648 18.2333 31.5056 17.2149 31.4944 16.0891V14.1423C30.0923 14.6216 28.5416 14.3327 27.4062 13.3806C26.0443 15.6108 23.1322 16.3146 20.9021 14.9527C19.5189 14.108 18.6643 12.6141 18.6372 10.9936C18.6372 10.8921 18.6372 10.7566 18.6372 10.6212C18.6372 10.4858 18.6372 10.4435 18.6372 10.3588H13.8464C13.809 10.3588 13.7787 10.3891 13.7787 10.4265V35.904C13.6071 37.0553 14.4011 38.1278 15.5525 38.2994ZM13.8464 8.66595H19.5175C19.9849 8.66595 20.3639 9.04494 20.3639 9.51238C20.3695 9.56867 20.3695 9.62538 20.3639 9.68166C20.3639 9.68166 20.3639 9.74092 20.3639 9.76631C20.3413 10.0141 20.3413 10.2634 20.3639 10.5112C20.3639 10.6889 20.3639 10.8582 20.3639 10.9936C20.3971 12.6668 21.7804 13.9963 23.4536 13.9632C24.8756 13.9351 26.0866 12.9217 26.3651 11.5269C26.4324 11.1641 26.7268 10.8868 27.093 10.8413C27.4487 10.8073 27.7874 11.0004 27.9394 11.3237C28.5174 12.5241 29.9591 13.0287 31.1595 12.4507C31.3814 12.3438 31.5857 12.2035 31.7653 12.0347C32.1036 11.7121 32.6394 11.7249 32.9619 12.0633C33.1132 12.222 33.197 12.4333 33.1958 12.6526V16.0891C33.1958 16.7903 33.7642 17.3588 34.4654 17.3588C35.1666 17.3588 35.735 16.7903 35.735 16.0891V7.81952C35.6945 6.49719 34.5897 5.45809 33.2674 5.49861C32.6194 5.51851 32.0073 5.80005 31.5705 6.27902C31.2699 6.63706 30.736 6.68372 30.378 6.38313C30.1016 6.15121 30.0027 5.76958 30.1316 5.43259C30.219 5.15888 30.2647 4.87353 30.267 4.58616C30.282 2.91267 28.9376 1.54389 27.2642 1.52886C25.9256 1.5168 24.7376 2.3846 24.342 3.66356C24.1932 4.10677 23.7134 4.34536 23.2702 4.1966C23.1665 4.16179 23.0707 4.1073 22.9877 4.03599C21.7023 2.96441 19.7915 3.13771 18.7199 4.42323C18.5679 4.60563 18.4378 4.80518 18.3324 5.01784C18.1221 5.43534 17.6132 5.60347 17.1957 5.39323C17.1552 5.37281 17.1164 5.34922 17.0796 5.32256C16.6709 5.02652 16.1793 4.86654 15.6746 4.86549C14.3736 4.85141 13.3063 5.8922 13.2876 7.19316C13.2936 7.73477 13.4915 8.2567 13.8464 8.66595ZM4.29022 29.522C4.29022 31.1048 4.68804 33.7541 7.34582 33.7541H12.0858V30.7323H9.91897C8.09915 30.7323 6.96493 29.3527 6.96493 27.135V21.5232C6.96493 19.3056 8.09915 17.9259 9.91897 17.9259H12.0858V14.9211H7.32889C4.6711 14.9211 4.27328 17.5788 4.27328 19.1532L4.29022 29.522ZM12.0858 29.048L12.0774 19.6272H9.9105C9.06407 19.6272 8.64932 20.2705 8.64932 21.5317V27.1435C8.64932 28.4047 9.07254 29.048 9.9105 29.048H12.0858Z" fill="#EDEAA2"/>
<path d="M29.5138 17.3757C29.9812 17.3757 30.3602 17.7547 30.3602 18.2222V32.129C30.3602 32.5964 29.9812 32.9754 29.5138 32.9754C29.0464 32.9754 28.6674 32.5964 28.6674 32.129V18.2222C28.6674 17.7547 29.0464 17.3757 29.5138 17.3757Z" fill="#EDEAA2"/>
<path d="M25.4933 17.3757C25.9607 17.3757 26.3397 17.7547 26.3397 18.2222V32.129C26.3397 32.5964 25.9607 32.9754 25.4933 32.9754C25.0259 32.9754 24.6469 32.5964 24.6469 32.129V18.2222C24.6469 17.7547 25.0259 17.3757 25.4933 17.3757Z" fill="#EDEAA2"/>
<path d="M21.4727 17.3757C21.9401 17.3757 22.3191 17.7547 22.3191 18.2222V32.129C22.3191 32.5964 21.9401 32.9754 21.4727 32.9754C21.0052 32.9754 20.6262 32.5964 20.6262 32.129V18.2222C20.6262 17.7547 21.0052 17.3757 21.4727 17.3757Z" fill="#EDEAA2"/>
<path d="M17.4861 17.3757C17.9535 17.3757 18.3325 17.7547 18.3325 18.2222V32.129C18.3325 32.5964 17.9535 32.9754 17.4861 32.9754C17.0186 32.9754 16.6397 32.5964 16.6397 32.129V18.2222C16.6397 17.7547 17.0186 17.3757 17.4861 17.3757Z" fill="#EDEAA2"/>
</g>
<defs>
<clipPath id="clip0">
<rect width="40" height="40" fill="white" transform="matrix(-1 0 0 1 40 0)"/>
</clipPath>
</defs>
</svg>
